<svg width="86" height="21" viewBox="0 0 86 21" fill="none" xmlns="http://www.w3.org/2000/svg">
<path d="M6.104 20.02L2.22772e-06 1.53999H4.396L8.764 16.604H9.128L13.524 1.53999H17.864L11.732 20.02H6.104ZM24.0233 20.412C22.81 20.412 21.7273 20.244 20.7753 19.908C19.842 19.572 19.0487 19.0867 18.3953 18.452C17.742 17.8173 17.238 17.0333 16.8833 16.1C16.5473 15.1667 16.3793 14.112 16.3793 12.936C16.3793 11.7787 16.538 10.7147 16.8553 9.74399C17.1913 8.75466 17.6767 7.90532 18.3113 7.19599C18.946 6.46799 19.7207 5.90799 20.6353 5.51599C21.55 5.12399 22.586 4.92799 23.7433 4.92799C24.8633 4.92799 25.862 5.11465 26.7393 5.48799C27.6167 5.84266 28.3447 6.38399 28.9233 7.11199C29.5207 7.83999 29.95 8.73599 30.2113 9.79999C30.4913 10.8453 30.594 12.0493 30.5193 13.412L18.9833 13.524V11.312L28.1953 11.228L26.7673 12.348C26.898 11.3587 26.8327 10.5467 26.5713 9.91199C26.31 9.27732 25.9273 8.81066 25.4233 8.51199C24.938 8.21332 24.3967 8.06399 23.7993 8.06399C23.09 8.06399 22.4647 8.25066 21.9233 8.62399C21.382 8.99732 20.962 9.54799 20.6633 10.276C20.3647 10.9853 20.2153 11.844 20.2153 12.852C20.2153 14.4387 20.5607 15.6053 21.2513 16.352C21.9607 17.0987 22.8847 17.472 24.0233 17.472C24.546 17.472 24.9847 17.4067 25.3393 17.276C25.7127 17.1267 26.0113 16.94 26.2353 16.716C26.478 16.492 26.6647 16.24 26.7953 15.96C26.9447 15.68 27.066 15.4 27.1593 15.12L30.6593 15.876C30.4913 16.5667 30.2393 17.192 29.9033 17.752C29.586 18.2933 29.1567 18.7693 28.6153 19.18C28.074 19.572 27.4207 19.8707 26.6553 20.076C25.9087 20.3 25.0313 20.412 24.0233 20.412ZM37.3203 20.412C36.0883 20.412 35.0056 20.0947 34.0723 19.46C33.1576 18.8253 32.4483 17.9293 31.9443 16.772C31.4403 15.6147 31.1883 14.2427 31.1883 12.656C31.1883 11.1627 31.4123 9.83732 31.8603 8.67999C32.3083 7.52266 32.9709 6.61732 33.8483 5.96399C34.7256 5.31066 35.8176 4.98399 37.1243 4.98399C38.0763 4.98399 38.879 5.16132 39.5323 5.51599C40.1856 5.87066 40.7176 6.39332 41.1283 7.08399C41.5576 7.75599 41.8936 8.56799 42.1363 9.51999H42.7803C42.6496 8.92266 42.5283 8.34399 42.4163 7.78399C42.3229 7.20532 42.2483 6.65466 42.1923 6.13199C42.1363 5.60932 42.1083 5.15199 42.1083 4.75999V-1.19209e-05H46.1403V12.796V20.02H42.7803V15.764H42.2203C42.015 16.8093 41.6976 17.6773 41.2683 18.368C40.839 19.0587 40.2883 19.572 39.6163 19.908C38.963 20.244 38.1976 20.412 37.3203 20.412ZM38.6643 17.108C39.2803 17.108 39.803 16.9773 40.2323 16.716C40.6616 16.4547 41.0163 16.1187 41.2963 15.708C41.5763 15.2787 41.7816 14.8213 41.9123 14.336C42.043 13.832 42.1083 13.3653 42.1083 12.936V12.404C42.1083 12.0493 42.0523 11.6853 41.9403 11.312C41.847 10.92 41.707 10.5373 41.5203 10.164C41.3336 9.79066 41.1003 9.46399 40.8203 9.18399C40.5403 8.88532 40.2136 8.65199 39.8403 8.48399C39.4669 8.31599 39.0563 8.23199 38.6083 8.23199C37.9363 8.23199 37.3669 8.41865 36.9003 8.79199C36.4336 9.16532 36.0696 9.68799 35.8083 10.36C35.5469 11.0133 35.4163 11.7787 35.4163 12.656C35.4163 13.552 35.5469 14.336 35.8083 15.008C36.0883 15.68 36.4709 16.2027 36.9563 16.576C37.4416 16.9307 38.0109 17.108 38.6643 17.108ZM51.6191 20.412C50.7978 20.412 50.0698 20.2533 49.4351 19.936C48.8004 19.6 48.3058 19.124 47.9511 18.508C47.5964 17.892 47.4191 17.1267 47.4191 16.212C47.4191 15.4093 47.5684 14.7373 47.8671 14.196C48.1844 13.6547 48.6418 13.216 49.2391 12.88C49.8364 12.544 50.5738 12.264 51.4511 12.04C52.3284 11.816 53.3271 11.62 54.4471 11.452C55.0444 11.3587 55.5298 11.2747 55.9031 11.2C56.2951 11.1067 56.5844 10.9667 56.7711 10.78C56.9578 10.5747 57.0511 10.2853 57.0511 9.91199C57.0511 9.38932 56.8644 8.94132 56.4911 8.56799C56.1178 8.19466 55.5298 8.00799 54.7271 8.00799C54.1858 8.00799 53.6818 8.10132 53.2151 8.28799C52.7671 8.47466 52.3751 8.75466 52.0391 9.12799C51.7218 9.50132 51.4884 9.97732 51.3391 10.556L47.7831 9.46399C48.0071 8.69866 48.3244 8.03599 48.7351 7.47599C49.1644 6.91599 49.6778 6.44932 50.2751 6.07599C50.8724 5.68399 51.5538 5.39465 52.3191 5.20799C53.0844 5.02132 53.9151 4.92799 54.8111 4.92799C56.2484 4.92799 57.4151 5.16132 58.3111 5.62799C59.2258 6.07599 59.9071 6.78532 60.3551 7.75599C60.8031 8.70799 61.0271 9.93999 61.0271 11.452V13.972C61.0271 14.6253 61.0364 15.288 61.0551 15.96C61.0924 16.632 61.1298 17.3133 61.1671 18.004C61.2231 18.676 61.2791 19.348 61.3351 20.02H57.7791C57.7044 19.5533 57.6298 19.0213 57.5551 18.424C57.4991 17.808 57.4524 17.192 57.4151 16.576H56.9111C56.6498 17.2853 56.2764 17.9293 55.7911 18.508C55.3058 19.0867 54.7084 19.5533 53.9991 19.908C53.3084 20.244 52.5151 20.412 51.6191 20.412ZM53.3271 17.5C53.6818 17.5 54.0364 17.4347 54.3911 17.304C54.7644 17.1733 55.1191 16.996 55.4551 16.772C55.8098 16.5293 56.1271 16.2307 56.4071 15.876C56.7058 15.5213 56.9484 15.12 57.1351 14.672L57.0791 12.32L57.7231 12.46C57.3871 12.7027 56.9951 12.8987 56.5471 13.048C56.0991 13.1787 55.6324 13.2813 55.1471 13.356C54.6804 13.4307 54.2138 13.5147 53.7471 13.608C53.2804 13.7013 52.8604 13.8227 52.4871 13.972C52.1324 14.1213 51.8431 14.3267 51.6191 14.588C51.4138 14.8307 51.3111 15.176 51.3111 15.624C51.3111 16.2027 51.4978 16.66 51.8711 16.996C52.2444 17.332 52.7298 17.5 53.3271 17.5ZM61.53 20.02L67.858 1.53999H73.738L80.066 20.02H75.698L71.022 4.73199H70.602L65.898 20.02H61.53ZM65.086 16.38V13.636H77.098V16.38H65.086ZM80.9408 20.02V1.53999H85.0568V20.02H80.9408Z" fill="#303030"/>
</svg>
